<svg width="56" height="56" fill="none" xmlns="http://www.w3.org/2000/svg"><path d="M6.482 42.97C6.482 32.21.91 24.82.91 19.635c0-5.185 2.98-16.074 26.831-16.074 23.852 0 27.352 14.649 27.352 20.352.001 26.704-48.61 38.11-48.61 19.055Z" fill="#ECEFF2"/><path d="M41.416 12.834h1.556v3.11h-1.556v-3.11Zm3.5 4.666h3.112v1.555h-3.111V17.5Z" fill="#C2C8CD"/><path d="M33.056 37.831v-24.22a3.11 3.11 0 0 0-3.112-3.111H13.611a3.11 3.11 0 0 0-3.111 3.111v24.22a3.11 3.11 0 0 0 3.111 3.111h16.333a3.11 3.11 0 0 0 3.112-3.11Z" fill="#F3F3F1"/><path d="M37.333 45.5S45.5 42.028 45.5 35.084v-6.25l-8.167-2.778-8.166 2.778v6.25c0 6.944 8.166 10.416 8.166 10.416Z" fill="#2A6CEA"/><path d="M14 37.831v-24.22a3.11 3.11 0 0 1 3.111-3.111h-3.5a3.11 3.11 0 0 0-3.111 3.111v24.22a3.11 3.11 0 0 0 3.111 3.111h3.5A3.11 3.11 0 0 1 14 37.832Z" fill="#E1E6EA"/><path d="M32.666 35.084v-6.25l6.417-2.183-1.75-.595-8.166 2.778v6.25c0 6.944 8.166 10.416 8.166 10.416s.733-.316 1.75-.932c-2.398-1.453-6.416-4.609-6.416-9.484Z" fill="#191C1F" fill-opacity=".1"/><path d="M23.722 42h-10.11a4.281 4.281 0 0 1-4.278-4.278v-24.11a4.281 4.281 0 0 1 4.277-4.278h16.334a4.281 4.281 0 0 1 4.277 4.277v8.556H31.89V13.61a1.947 1.947 0 0 0-1.944-1.944H13.61a1.947 1.947 0 0 0-1.944 1.944v24.111c0 1.072.873 1.945 1.944 1.945h10.111V42Z" fill="#191C1F"/><path d="m15.991 29.213-1.649-1.649 3.89-3.889c.371-.373.945-.45 1.402-.188l1.98 1.133 4.428-4.087 1.583 1.716-5.055 4.667c-.375.345-.93.407-1.37.155l-1.95-1.114-3.259 3.256Z" fill="#191C1F"/><path d="M28 26.444h-2.334v-3.889h-3.889v-2.333h5.056c.644 0 1.167.523 1.167 1.167v5.055Z" fill="#191C1F"/><path d="M36.944 39.666c-.308 0-.607-.122-.824-.342l-3.111-3.11 1.65-1.651 2.16 2.16 3.858-5.145 1.865 1.4-4.666 6.222a1.16 1.16 0 0 1-.932.466Z" fill="#fff"/></svg>