<svg width="56" height="56" viewBox="0 0 56 56" fill="none" xmlns="http://www.w3.org/2000/svg">
<path d="M6.48225 42.9691C6.48225 32.2094 0.908691 24.8205 0.908691 19.6358C0.908691 14.4511 3.88914 3.56226 27.7405 3.56226C51.5918 3.56226 55.0918 18.2109 55.0918 23.9136C55.0934 50.6178 6.48225 62.0247 6.48225 42.9691Z" fill="#ECEFF2"/>
<path d="M41.4165 12.8335H42.9721V15.9446H41.4165V12.8335Z" fill="#C2C8CD"/>
<path d="M44.9165 17.5H48.0276V19.0555H44.9165V17.5Z" fill="#C2C8CD"/>
<path d="M33.0556 37.8311V13.6111C33.0556 11.8922 31.6633 10.5 29.9444 10.5H13.6111C11.8922 10.5 10.5 11.8922 10.5 13.6111V37.8311C10.5 39.55 11.8922 40.9422 13.6111 40.9422H29.9444C31.6633 40.9422 33.0556 39.55 33.0556 37.8311Z" fill="#F3F3F1"/>
<path d="M37.3332 45.5001C37.3332 45.5001 45.4998 42.0281 45.4998 35.0841C45.4998 32.3059 45.4998 28.8339 45.4998 28.8339L37.3332 26.0557L29.1665 28.8339V35.0841C29.1665 42.0281 37.3332 45.5001 37.3332 45.5001Z" fill="#2A6CEA"/>
<path d="M14 37.8311V13.6111C14 11.8922 15.3922 10.5 17.1111 10.5H13.6111C11.8922 10.5 10.5 11.8922 10.5 13.6111V37.8311C10.5 39.55 11.8922 40.9422 13.6111 40.9422H17.1111C15.3922 40.9422 14 39.55 14 37.8311Z" fill="#E1E6EA"/>
<path d="M32.6665 35.0841C32.6665 30.9168 32.6665 28.8339 32.6665 28.8339L39.0832 26.6514L37.3332 26.0557L29.1665 28.8339V35.0841C29.1665 42.0281 37.3332 45.5001 37.3332 45.5001C37.3332 45.5001 38.0658 45.1843 39.0832 44.5683C36.6845 43.1155 32.6665 39.9592 32.6665 35.0841Z" fill="#191C1F" fill-opacity="0.1"/>
<path d="M23.7224 42.0002H13.6113C11.2515 42.0002 9.3335 40.0822 9.3335 37.7224V13.6113C9.3335 11.2515 11.2515 9.3335 13.6113 9.3335H29.9446C32.3044 9.3335 34.2224 11.2515 34.2224 13.6113V22.1668H31.8891V13.6113C31.8891 12.5395 31.0164 11.6668 29.9446 11.6668H13.6113C12.5395 11.6668 11.6668 12.5395 11.6668 13.6113V37.7224C11.6668 38.7942 12.5395 39.6668 13.6113 39.6668H23.7224V42.0002Z" fill="#191C1F"/>
<path d="M15.9912 29.2132L14.3423 27.5643L18.2312 23.6754C18.603 23.3021 19.1769 23.2259 19.6343 23.4872L21.6145 24.6196L26.0416 20.5332L27.6252 22.249L22.5696 26.9156C22.1947 27.261 21.6394 27.3232 21.1992 27.0712L19.2501 25.9574L15.9912 29.2132Z" fill="#191C1F"/>
<path d="M27.9996 26.4444H25.6662V22.5555H21.7773V20.2222H26.8329C27.4769 20.2222 27.9996 20.7448 27.9996 21.3888V26.4444Z" fill="#191C1F"/>
<path d="M36.9441 39.6665C36.6361 39.6665 36.3374 39.5436 36.1197 39.3243L33.0085 36.2132L34.659 34.5627L36.8197 36.7234L40.6774 31.5776L42.5425 32.9776L37.8759 39.1999C37.6737 39.4705 37.3641 39.6401 37.025 39.6634C36.9985 39.6665 36.9721 39.6665 36.9441 39.6665Z" fill="white"/>
</svg>
