<svg width="56" height="56" viewBox="0 0 56 56" fill="none" xmlns="http://www.w3.org/2000/svg">
<path d="M54.2957 31.6635C48.4126 22.6553 49.038 13.4215 46.2022 9.07995C43.3664 4.7384 34.9151 -2.74694 14.9464 10.2964C-5.02227 23.3397 0.0566208 37.5186 3.17707 42.2926C17.7806 64.6491 64.7164 47.6173 54.2957 31.6635Z" fill="#ECEFF2"/>
<path d="M48.1536 32.6921L49.2535 31.5922L51.4534 33.7921L50.3535 34.892L48.1536 32.6921Z" fill="#C2C8CD"/>
<path d="M41.8286 26.3689L42.9286 25.2689L45.1284 27.4688L44.0285 28.5688L41.8286 26.3689Z" fill="#C2C8CD"/>
<path d="M48.4312 27.4768L50.631 25.2769L51.731 26.3769L49.5311 28.5767L48.4312 27.4768Z" fill="#C2C8CD"/>
<path d="M29.5394 51.4582C28.2529 51.4582 27.2061 50.4113 27.2061 49.1248C27.2061 47.8384 28.2529 46.7915 29.5394 46.7915C30.8258 46.7915 31.8727 47.8384 31.8727 49.1248C31.8727 50.4113 30.8258 51.4582 29.5394 51.4582ZM29.5394 48.3471C29.1101 48.3471 28.7616 48.6955 28.7616 49.1248C28.7616 49.5542 29.1101 49.9026 29.5394 49.9026C29.9687 49.9026 30.3172 49.5542 30.3172 49.1248C30.3172 48.6955 29.9687 48.3471 29.5394 48.3471Z" fill="#C2C8CD"/>
<path d="M30.3802 26.0557H12.8335V31.5001V42.389H18.2779H23.6913H35.389V31.5779V26.0557H30.3802Z" fill="#F3F3F1"/>
<path d="M39.2778 31.5776H35.3889V42.3887H36.9445H42.3562H45.5V37.7999C45.5 34.3636 42.714 31.5776 39.2778 31.5776Z" fill="#2A6CEA"/>
<path d="M20.9996 45.5001C22.503 45.5001 23.7218 44.2813 23.7218 42.7779C23.7218 41.2744 22.503 40.0557 20.9996 40.0557C19.4961 40.0557 18.2773 41.2744 18.2773 42.7779C18.2773 44.2813 19.4961 45.5001 20.9996 45.5001Z" fill="#F3F3F1"/>
<path d="M39.6673 45.5001C41.1707 45.5001 42.3895 44.2813 42.3895 42.7779C42.3895 41.2744 41.1707 40.0557 39.6673 40.0557C38.1639 40.0557 36.9451 41.2744 36.9451 42.7779C36.9451 44.2813 38.1639 45.5001 39.6673 45.5001Z" fill="#F3F3F1"/>
<path d="M19.4445 28.3889C24.3843 28.3889 28.3889 24.3843 28.3889 19.4445C28.3889 14.5046 24.3843 10.5 19.4445 10.5C14.5046 10.5 10.5 14.5046 10.5 19.4445C10.5 24.3843 14.5046 28.3889 19.4445 28.3889Z" fill="#2A6CEA"/>
<path d="M16.333 28H12.4441V32.9259V42.7778H16.333V32.9259V28Z" fill="#E1E6EA"/>
<path d="M35.3889 31.5776V42.3887H36.9445H38.8889V31.5776H35.3889Z" fill="#191C1F" fill-opacity="0.1"/>
<path d="M21.7773 42.7779C21.7773 41.9441 22.16 41.2083 22.7496 40.709C22.2751 40.3077 21.67 40.0557 20.9996 40.0557C19.4969 40.0557 18.2773 41.2752 18.2773 42.7779C18.2773 44.2806 19.4969 45.5001 20.9996 45.5001C21.67 45.5001 22.2751 45.2481 22.7496 44.8468C22.16 44.3474 21.7773 43.6117 21.7773 42.7779Z" fill="#D5DBE1"/>
<path d="M40.4451 42.7779C40.4451 41.9441 40.8277 41.2083 41.4173 40.709C40.9429 40.3077 40.3377 40.0557 39.6673 40.0557C38.1646 40.0557 36.9451 41.2752 36.9451 42.7779C36.9451 44.2806 38.1646 45.5001 39.6673 45.5001C40.3377 45.5001 40.9429 45.2481 41.4173 44.8468C40.8277 44.3474 40.4451 43.6117 40.4451 42.7779Z" fill="#D5DBE1"/>
<path d="M14 19.4445C14 15.1044 17.0924 11.4878 21.1945 10.6742C20.6282 10.5607 20.0433 10.5 19.4444 10.5C14.504 10.5 10.5 14.504 10.5 19.4445C10.5 24.3849 14.504 28.3889 19.4444 28.3889C20.0433 28.3889 20.6282 28.3282 21.1945 28.2147C17.0924 27.4011 14 23.7845 14 19.4445Z" fill="#191C1F" fill-opacity="0.1"/>
<path d="M19.445 23.7223C19.1463 23.7223 18.8476 23.6088 18.6205 23.3801L13.9539 18.7134L15.6043 17.063L19.4465 20.9052L23.2888 17.063L24.9392 18.7134L20.2725 23.3801C20.0423 23.6088 19.7436 23.7223 19.445 23.7223Z" fill="white"/>
<path d="M19.4453 43.5557H12.8341C12.1901 43.5557 11.6675 43.033 11.6675 42.389V30.1624H14.0008V41.2224H19.4453V43.5557Z" fill="#191C1F"/>
<path d="M35.3898 43.5556H22.5254V41.2222H34.2232V27.2222H30.1632V24.8889H35.3898C36.0338 24.8889 36.5565 25.4116 36.5565 26.0556V42.3889C36.5565 43.0329 36.0338 43.5556 35.3898 43.5556Z" fill="#191C1F"/>
<path d="M45.5004 43.5556H41.19V41.2222H44.3338V37.8C44.3338 35.0125 42.0658 32.7445 39.2782 32.7445H36.556V41.2222H38.1115V43.5556H35.3893C34.7453 43.5556 34.2227 43.0329 34.2227 42.3889V31.5778C34.2227 30.9338 34.7453 30.4111 35.3893 30.4111H39.2782C43.3522 30.4111 46.6671 33.726 46.6671 37.8V42.3889C46.6671 43.0329 46.1444 43.5556 45.5004 43.5556Z" fill="#191C1F"/>
<path d="M21.0002 46.6667C18.8567 46.6667 17.1113 44.9214 17.1113 42.7778C17.1113 40.6343 18.8567 38.8889 21.0002 38.8889C23.1438 38.8889 24.8891 40.6343 24.8891 42.7778C24.8891 44.9214 23.1438 46.6667 21.0002 46.6667ZM21.0002 41.2223C20.1431 41.2223 19.4447 41.9207 19.4447 42.7778C19.4447 43.6349 20.1431 44.3334 21.0002 44.3334C21.8573 44.3334 22.5558 43.6349 22.5558 42.7778C22.5558 41.9207 21.8573 41.2223 21.0002 41.2223Z" fill="#191C1F"/>
<path d="M39.6677 46.6667C37.5241 46.6667 35.7788 44.9214 35.7788 42.7778C35.7788 40.6343 37.5241 38.8889 39.6677 38.8889C41.8113 38.8889 43.5566 40.6343 43.5566 42.7778C43.5566 44.9214 41.8113 46.6667 39.6677 46.6667ZM39.6677 41.2223C38.8106 41.2223 38.1121 41.9207 38.1121 42.7778C38.1121 43.6349 38.8106 44.3334 39.6677 44.3334C40.5248 44.3334 41.2233 43.6349 41.2233 42.7778C41.2233 41.9207 40.5248 41.2223 39.6677 41.2223Z" fill="#191C1F"/>
</svg>
