<svg width="56" height="56" viewBox="0 0 56 56" fill="none" xmlns="http://www.w3.org/2000/svg">
<path d="M54.2957 31.6635C48.4126 22.6553 49.038 13.4215 46.2022 9.07995C43.3664 4.7384 34.9151 -2.74694 14.9464 10.2964C-5.02227 23.3397 0.0566208 37.5186 3.17707 42.2926C17.7806 64.6491 64.7164 47.6173 54.2957 31.6635Z" fill="#ECEFF2"/>
<path d="M29.1667 17.8049C29.1667 18.1627 28.9318 18.4707 28.6067 18.5764L21.0513 21.0513L18.5764 28.6067C18.4707 28.9318 18.1627 29.1667 17.8049 29.1667C17.4564 29.1667 17.164 28.9473 17.0504 28.6471L10.5576 11.6044C10.5156 11.5142 10.5 11.4178 10.5 11.312C10.5 10.8656 10.8656 10.5 11.312 10.5C11.4178 10.5 11.5142 10.5156 11.6044 10.5576L28.6487 17.0504C28.9473 17.1624 29.1667 17.4549 29.1667 17.8049Z" fill="#F3F3F1"/>
<path d="M14.0576 11.6044C14.0404 11.5671 14.042 11.522 14.0327 11.4831L11.6044 10.5576C11.5142 10.5156 11.4178 10.5 11.312 10.5C10.8656 10.5 10.5 10.8656 10.5 11.312C10.5 11.4178 10.5156 11.5142 10.556 11.6044L17.0489 28.6487C17.1624 28.9489 17.4549 29.1682 17.8033 29.1682C18.1611 29.1682 18.4691 28.9333 18.5749 28.6082L19.4802 25.844L14.0576 11.6044Z" fill="#E1E6EA"/>
<path d="M35 45.5C40.799 45.5 45.5 40.799 45.5 35C45.5 29.201 40.799 24.5 35 24.5C29.201 24.5 24.5 29.201 24.5 35C24.5 40.799 29.201 45.5 35 45.5Z" fill="#2A6CEA"/>
<path d="M28 35C28 29.7982 31.7862 25.4924 36.75 24.6571C36.1791 24.5607 35.5973 24.5 35 24.5C29.2009 24.5 24.5 29.2009 24.5 35C24.5 40.7991 29.2009 45.5 35 45.5C35.5973 45.5 36.1791 45.4378 36.75 45.3429C31.7862 44.5076 28 40.2018 28 35Z" fill="#191C1F" fill-opacity="0.1"/>
<path d="M46.8662 19.7271L47.9662 18.6271L50.166 20.827L49.0661 21.9269L46.8662 19.7271Z" fill="#C2C8CD"/>
<path d="M40.5444 13.4011L41.6444 12.3012L43.8442 14.5011L42.7443 15.601L40.5444 13.4011Z" fill="#C2C8CD"/>
<path d="M47.1431 14.5024L49.343 12.3026L50.4429 13.4025L48.243 15.6024L47.1431 14.5024Z" fill="#C2C8CD"/>
<path d="M40.8198 20.825L43.0197 18.6251L44.1197 19.725L41.9198 21.9249L40.8198 20.825Z" fill="#C2C8CD"/>
<path d="M38.5381 40.1799L34.2603 36.6798C33.9881 36.459 33.8325 36.1276 33.8325 35.7776V29.1665H36.1659V35.2254L40.0159 38.3754L38.5381 40.1799Z" fill="white"/>
<path d="M17.8035 30.3335C16.9884 30.3335 16.2464 29.8217 15.9571 29.0611L9.46572 12.0199C9.38483 11.8411 9.3335 11.5844 9.3335 11.3106C9.3335 10.2202 10.2202 9.3335 11.3106 9.3335C11.5844 9.3335 11.8411 9.38483 12.0744 9.48905L29.0611 15.9586C29.8202 16.2479 30.332 16.9884 30.332 17.8051C30.332 18.6637 29.7828 19.4182 28.9677 19.6857L21.9739 21.9771L19.6826 28.9708C19.4166 29.7844 18.6622 30.3335 17.8035 30.3335ZM11.9266 11.9282L17.7802 27.2877L19.9424 20.6875C20.0575 20.3344 20.3359 20.0575 20.6875 19.9424L27.2877 17.7802L11.9266 11.9282ZM11.1893 11.6466C11.1939 11.6482 11.2002 11.6513 11.2079 11.6528L11.1893 11.6466ZM11.6248 11.1333L11.6451 11.1862C11.6388 11.1706 11.6326 11.1535 11.6248 11.1333Z" fill="#191C1F"/>
</svg>
