<svg width="56" height="56" viewBox="0 0 56 56" fill="none" xmlns="http://www.w3.org/2000/svg">
<path d="M20.8606 54.5175C30.6575 50.0702 39.6906 52.0924 44.4117 49.9504C49.1328 47.8068 57.8159 40.5922 47.9584 18.8735C38.1008 -2.84518 23.3168 0.0185937 18.1228 2.37682C-6.19359 13.4119 3.50841 62.3917 20.8606 54.5175Z" fill="#ECEFF2"/>
<path d="M21.2285 15.3222H21.0885L24.7332 12.4071C25.5265 11.7756 25.0754 10.5 24.0689 10.5H14.1025C13.0945 10.5 12.6449 11.7756 13.4383 12.4071L17.0814 15.3222H16.9414C13.2329 17.4969 10.2432 23.6911 10.2432 28.182C10.2432 31.3973 11.8501 34.6111 15.6005 34.6111H22.8338C26.5843 34.6111 28.1912 31.3958 28.1912 28.182C28.1943 23.6911 24.937 17.4969 21.2285 15.3222Z" fill="#F3F3F1"/>
<path d="M13.7444 28.182C13.7444 23.6927 16.7342 17.4984 20.4426 15.3222H20.5826L16.9395 12.4071C16.1462 11.7756 16.5973 10.5 17.6037 10.5H14.1037C13.0957 10.5 12.6462 11.7756 13.4395 12.4071L17.0826 15.3222H16.9426C13.2342 17.4969 10.2444 23.6911 10.2444 28.182C10.2444 31.3973 11.8513 34.6111 15.6017 34.6111H19.1017C15.3513 34.6111 13.7444 31.3958 13.7444 28.182Z" fill="#E1E6EA"/>
<path d="M38.6685 15.3222H38.5285L42.1716 12.4071C42.965 11.7756 42.5139 10.5 41.5074 10.5H31.541C30.533 10.5 30.0834 11.7756 30.8768 12.4071L34.5199 15.3222H34.3799C30.6714 17.4969 27.6816 23.6911 27.6816 28.182C27.6816 31.3973 29.2885 34.6111 33.039 34.6111H40.2723C44.0228 34.6111 45.6296 31.3958 45.6296 28.182C45.6343 23.6911 42.377 17.4969 38.6685 15.3222Z" fill="#F3F3F1"/>
<path d="M31.1839 28.182C31.1839 23.6927 34.1737 17.4984 37.8822 15.3222H38.0222L34.3775 12.4071C33.5842 11.7756 34.0353 10.5 35.0417 10.5H31.5417C30.5337 10.5 30.0842 11.7756 30.8775 12.4071L34.5206 15.3222H34.3806C30.6722 17.4969 27.6824 23.6911 27.6824 28.182C27.6824 31.3973 29.2893 34.6111 33.0397 34.6111H36.5397C32.7924 34.6111 31.1839 31.3958 31.1839 28.182Z" fill="#E1E6EA"/>
<path d="M30.2037 26.211H30.0637L33.7068 23.2959C34.5001 22.6643 34.049 21.3888 33.0426 21.3888H23.0761C22.0681 21.3888 21.6186 22.6643 22.4119 23.2959L26.055 26.211H25.915C22.2066 28.3857 19.2168 34.5799 19.2168 39.0708C19.2168 42.2861 20.8237 45.4999 24.5741 45.4999H31.8075C35.5579 45.4999 37.1648 42.2846 37.1648 39.0708C37.1679 34.5799 33.9106 28.3857 30.2037 26.211Z" fill="#2A6CEA"/>
<path d="M27.2686 40.7555C26.9606 40.7555 26.6619 40.6326 26.4441 40.4133L23.333 37.3022L24.9835 35.6517L27.1441 37.8124L31.0019 32.6666L32.867 34.0666L28.2003 40.2889C27.9981 40.5595 27.6886 40.7291 27.3495 40.7524C27.323 40.7555 27.2966 40.7555 27.2686 40.7555Z" fill="white"/>
<path d="M22.7202 39.0708C22.7202 34.5815 25.71 28.3872 29.4184 26.211H29.5584L25.9153 23.2959C25.122 22.6643 25.5731 21.3888 26.5795 21.3888H23.0795C22.0715 21.3888 21.622 22.6643 22.4153 23.2959L26.0584 26.211H25.9184C22.21 28.3857 19.2202 34.5799 19.2202 39.0708C19.2202 42.2861 20.8271 45.4999 24.5775 45.4999H28.0775C24.3271 45.4999 22.7202 42.2846 22.7202 39.0708Z" fill="#191C1F" fill-opacity="0.1"/>
<path d="M46.6145 42.6373L48.8144 40.4374L49.9143 41.5374L47.7144 43.7373L46.6145 42.6373Z" fill="#C2C8CD"/>
<path d="M40.2905 48.9601L42.4904 46.7602L43.5904 47.8601L41.3905 50.06L40.2905 48.9601Z" fill="#C2C8CD"/>
<path d="M40.29 41.2616L41.39 40.1617L43.5899 42.3615L42.4899 43.4615L40.29 41.2616Z" fill="#C2C8CD"/>
<path d="M46.6135 47.5854L47.7135 46.4855L49.9134 48.6854L48.8134 49.7853L46.6135 47.5854Z" fill="#C2C8CD"/>
<path d="M22.0735 16.2338L20.6159 14.4107L24.0475 11.6667H14.6348L18.0664 14.4107L16.6088 16.2338L12.9657 13.3187C12.2113 12.7183 11.9313 11.7398 12.2502 10.8298C12.5675 9.92137 13.3966 9.33337 14.3579 9.33337H24.3244C25.2873 9.33337 26.1133 9.92137 26.4322 10.8314C26.7511 11.7414 26.4695 12.7183 25.7166 13.3203L22.0735 16.2338Z" fill="#191C1F"/>
<path d="M13.7156 14.1556H24.9669V16.489H13.7156V14.1556Z" fill="#191C1F"/>
<path d="M15.859 35.7779C11.351 35.7779 9.3335 31.9621 9.3335 28.1806C9.3335 23.6415 12.3202 16.8297 16.6073 14.3159L17.7879 16.3273C14.5835 18.2079 11.6668 23.8577 11.6668 28.1806C11.6668 29.0595 11.869 33.4446 15.859 33.4446V35.7779Z" fill="#191C1F"/>
<path d="M39.3911 16.2338L37.9336 14.4107L41.3651 11.6667H31.9524L35.384 14.4107L33.9265 16.2338L30.2833 13.3203C29.5304 12.7183 29.2489 11.7398 29.5678 10.8298C29.8867 9.92137 30.7142 9.33337 31.6756 9.33337H41.642C42.6049 9.33337 43.4309 9.92137 43.7498 10.8314C44.0687 11.7414 43.7871 12.7183 43.0342 13.3203L39.3911 16.2338Z" fill="#191C1F"/>
<path d="M31.0327 14.1556H42.284V16.489H31.0327V14.1556Z" fill="#191C1F"/>
<path d="M40.1426 35.7779V33.4446C44.1311 33.4446 44.3333 29.061 44.3333 28.1806C44.3333 23.8577 41.4166 18.2079 38.2122 16.3273L39.3928 14.3159C43.6784 16.8297 46.6666 23.6415 46.6666 28.1806C46.6666 31.9621 44.6491 35.7779 40.1426 35.7779Z" fill="#191C1F"/>
</svg>
